# xmcd
#
# Track frame offsets:
# 150
# 17649
# 27736
# 39690
# 48277
# 58654
# 67066
# 79660
# 87671
# 100308
# 108130
# 122802
# 131351
# 150358
# 171388
# 194016
# 214683
# 239464
# 268346
# 297413
#
# Disc length: 4236 seconds
#
# Revision: 0
# Processed by: cddbd v1.5.1PL0 Copyright (c) Steve Scherf et al.
# Submitted via: Audion 3.0.2 (http://www.panic.com/audion/)
#
DISCID=2c108a14
DTITLE=nirbana - nirbana onplod
DYEAR=1900
DGENRE=
TTITLE0=NIRVANA
TTITLE1=NIRVANA
TTITLE2=NIRVANA
TTITLE3=NIRVANA
TTITLE4=NIRVANA
TTITLE5=NIRVANA
TTITLE6=NIRVANA
TTITLE7=NIRVANA
TTITLE8=NIRVANA
TTITLE9=NIRVANA
TTITLE10=NIRVANA
TTITLE11=NIRVANA
TTITLE12=NIRVANA
TTITLE13=NIRVANA
TTITLE14=NIRVANA
TTITLE15=NIRVANA
TTITLE16=NIRVANA
TTITLE17=NIRVANA
TTITLE18=NIRVANA
TTITLE19=NIRVANA
EXTD=
EXTT0=
EXTT1=
EXTT2=
EXTT3=
EXTT4=
EXTT5=
EXTT6=
EXTT7=
EXTT8=
EXTT9=
EXTT10=
EXTT11=
EXTT12=
EXTT13=
EXTT14=
EXTT15=
EXTT16=
EXTT17=
EXTT18=
EXTT19=
PLAYORDER=
